<svg xmlns="http://www.w3.org/2000/svg" xmlns:xlink="http://www.w3.org/1999/xlink" width="286" zoomAndPan="magnify" viewBox="0 0 214.5 44.999999" height="60" preserveAspectRatio="xMidYMid meet" version="1.0"><defs><g><g id="id1"/><g id="id2"/></g><clipPath id="id3"><path d="M 155 27 L 156 27 L 156 28 L 155 28 Z M 155 27 " clip-rule="nonzero"/></clipPath><clipPath id="id4"><path d="M 155.703125 27.402344 L 155.6875 27.417969 C 155.6875 27.417969 155.71875 27.394531 155.703125 27.402344 Z M 155.703125 27.402344 " clip-rule="nonzero"/></clipPath><clipPath id="id5"><path d="M 157 20 L 158 20 L 158 21 L 157 21 Z M 157 20 " clip-rule="nonzero"/></clipPath><clipPath id="id6"><path d="M 157.171875 20.46875 L 157.179688 20.492188 C 157.1875 20.5 157.1875 20.507812 157.171875 20.46875 Z M 157.171875 20.46875 " clip-rule="nonzero"/></clipPath><clipPath id="id7"><path d="M 155 27 L 156 27 L 156 28 L 155 28 Z M 155 27 " clip-rule="nonzero"/></clipPath><clipPath id="id8"><path d="M 155.703125 27.402344 L 155.6875 27.417969 C 155.6875 27.417969 155.71875 27.394531 155.703125 27.402344 Z M 155.703125 27.402344 " clip-rule="nonzero"/></clipPath><clipPath id="id9"><path d="M 157 20 L 158 20 L 158 21 L 157 21 Z M 157 20 " clip-rule="nonzero"/></clipPath><clipPath id="id10"><path d="M 157.171875 20.46875 L 157.179688 20.492188 C 157.1875 20.5 157.1875 20.507812 157.171875 20.46875 Z M 157.171875 20.46875 " clip-rule="nonzero"/></clipPath><clipPath id="id11"><path d="M 134 14 L 160.824219 14 L 160.824219 32 L 134 32 Z M 134 14 " clip-rule="nonzero"/></clipPath><clipPath id="id12"><path d="M 134.929688 25.578125 C 143.996094 18.566406 150.324219 15.882812 154.320312 14.917969 C 154.585938 15.003906 154.851562 15.105469 155.113281 15.21875 C 156.097656 15.621094 157.015625 16.214844 157.769531 16.957031 C 158.148438 17.335938 158.496094 17.738281 158.785156 18.171875 L 158.894531 18.339844 L 158.996094 18.511719 C 159.066406 18.632812 159.136719 18.753906 159.210938 18.875 L 159.351562 19.160156 L 159.445312 19.347656 L 159.515625 19.53125 C 159.925781 20.484375 160.121094 21.503906 160.113281 22.492188 C 160.113281 23.484375 159.925781 24.441406 159.585938 25.316406 C 159.257812 26.183594 158.792969 26.984375 158.226562 27.667969 C 158.078125 27.84375 157.953125 28.007812 157.777344 28.175781 C 157.613281 28.339844 157.441406 28.523438 157.308594 28.632812 L 157.085938 28.820312 L 157.03125 28.871094 C 157.046875 28.855469 156.976562 28.917969 156.976562 28.917969 L 156.820312 29.035156 C 156.65625 29.160156 156.488281 29.289062 156.308594 29.398438 C 154.941406 30.320312 153.460938 30.859375 152.039062 31.152344 C 151.324219 31.300781 150.625 31.378906 149.941406 31.410156 C 149.765625 31.417969 149.59375 31.417969 149.429688 31.425781 C 149.34375 31.425781 149.261719 31.425781 149.179688 31.425781 C 149.09375 31.421875 149.007812 31.417969 148.917969 31.417969 C 148.753906 31.410156 148.582031 31.410156 148.429688 31.394531 C 148.351562 31.390625 148.273438 31.386719 148.195312 31.378906 L 148.085938 31.371094 L 148.054688 31.363281 C 148.054688 31.363281 148.007812 31.363281 148.015625 31.363281 L 147.953125 31.355469 C 146.683594 31.222656 145.523438 30.953125 144.484375 30.605469 C 143.453125 30.25 142.542969 29.824219 141.753906 29.375 C 141.660156 29.320312 141.566406 29.265625 141.472656 29.210938 C 141.378906 29.144531 141.285156 29.089844 141.199219 29.035156 C 141.015625 28.917969 140.835938 28.804688 140.679688 28.6875 C 140.515625 28.570312 140.359375 28.460938 140.207031 28.347656 C 140.058594 28.234375 139.914062 28.121094 139.773438 28.007812 C 139.640625 27.90625 139.515625 27.789062 139.398438 27.683594 C 139.277344 27.574219 139.160156 27.472656 139.050781 27.378906 C 138.839844 27.164062 138.640625 26.984375 138.476562 26.800781 C 138.316406 26.621094 138.171875 26.464844 138.050781 26.328125 C 137.925781 26.183594 137.839844 26.066406 137.761719 25.972656 C 137.664062 25.847656 137.585938 25.75 137.535156 25.6875 L 137.941406 25.332031 C 137.996094 25.394531 138.078125 25.484375 138.1875 25.601562 C 138.273438 25.6875 138.375 25.804688 138.5 25.933594 C 138.625 26.046875 138.769531 26.183594 138.933594 26.34375 C 139.097656 26.492188 139.304688 26.660156 139.515625 26.839844 C 139.625 26.925781 139.742188 27.015625 139.859375 27.109375 C 139.980469 27.203125 140.105469 27.296875 140.246094 27.394531 C 140.382812 27.484375 140.523438 27.578125 140.671875 27.675781 C 140.824219 27.773438 140.980469 27.871094 141.140625 27.96875 C 141.300781 28.070312 141.472656 28.160156 141.644531 28.253906 C 141.734375 28.300781 141.824219 28.347656 141.914062 28.394531 C 142.007812 28.441406 142.101562 28.484375 142.195312 28.53125 C 142.957031 28.902344 143.839844 29.234375 144.820312 29.492188 C 145.796875 29.753906 146.882812 29.925781 148.046875 29.96875 L 148.101562 29.976562 C 148.125 29.976562 148.101562 29.976562 148.117188 29.976562 L 148.257812 29.976562 C 148.332031 29.976562 148.40625 29.976562 148.484375 29.976562 C 148.652344 29.976562 148.785156 29.96875 148.925781 29.96875 C 149 29.960938 149.074219 29.960938 149.144531 29.960938 C 149.21875 29.949219 149.292969 29.941406 149.367188 29.933594 C 149.515625 29.925781 149.671875 29.917969 149.824219 29.894531 C 150.429688 29.824219 151.042969 29.714844 151.664062 29.539062 C 152.890625 29.203125 154.125 28.648438 155.191406 27.828125 C 155.332031 27.726562 155.460938 27.613281 155.585938 27.503906 L 155.679688 27.417969 L 155.6875 27.417969 C 155.6875 27.417969 155.71875 27.394531 155.703125 27.402344 L 155.6875 27.417969 C 155.6875 27.417969 155.691406 27.410156 155.703125 27.402344 L 155.75 27.355469 L 155.953125 27.15625 C 156.113281 27.015625 156.191406 26.902344 156.292969 26.785156 C 156.394531 26.675781 156.488281 26.53125 156.59375 26.398438 C 156.984375 25.855469 157.300781 25.238281 157.503906 24.582031 C 157.921875 23.273438 157.851562 21.804688 157.230469 20.589844 L 157.179688 20.492188 C 157.1875 20.5 157.1875 20.507812 157.171875 20.46875 L 157.179688 20.492188 C 157.179688 20.484375 157.171875 20.46875 157.171875 20.46875 L 157.148438 20.4375 L 157.109375 20.367188 L 156.953125 20.082031 L 156.8125 19.894531 L 156.75 19.796875 L 156.671875 19.6875 C 156.457031 19.410156 156.207031 19.160156 155.945312 18.929688 C 155.421875 18.464844 154.792969 18.109375 154.089844 17.863281 C 152.683594 17.375 151.015625 17.3125 149.367188 17.582031 C 148.539062 17.707031 147.714844 17.917969 146.914062 18.195312 C 146.71875 18.273438 146.511719 18.347656 146.324219 18.425781 L 146.175781 18.488281 L 146.039062 18.542969 L 145.710938 18.691406 L 145.378906 18.835938 C 145.269531 18.882812 145.183594 18.9375 145.082031 18.984375 C 144.878906 19.082031 144.679688 19.175781 144.484375 19.277344 C 142.847656 20.097656 141.246094 21.070312 139.664062 22.152344 C 138.871094 22.679688 138.085938 23.242188 137.296875 23.816406 C 136.511719 24.390625 135.722656 24.976562 134.929688 25.578125 Z M 134.929688 25.578125 " clip-rule="nonzero"/></clipPath><clipPath id="id13"><path d="M 106 14 L 155 14 L 155 35 L 106 35 Z M 106 14 " clip-rule="nonzero"/></clipPath><clipPath id="id14"><path d="M 121.808594 28.417969 C 122.085938 28.3125 122.363281 28.207031 122.640625 28.097656 C 124.355469 27.402344 126.039062 26.507812 127.699219 25.523438 C 128.523438 25.023438 129.339844 24.503906 130.152344 23.96875 C 130.558594 23.699219 130.96875 23.421875 131.371094 23.152344 C 131.777344 22.871094 132.191406 22.585938 132.605469 22.300781 C 134.246094 21.171875 135.921875 20.042969 137.652344 18.992188 C 139.382812 17.933594 141.167969 16.957031 143.023438 16.136719 C 143.257812 16.03125 143.5 15.9375 143.746094 15.835938 C 143.863281 15.789062 143.988281 15.734375 144.097656 15.683594 L 144.429688 15.558594 L 144.765625 15.433594 L 144.964844 15.363281 L 145.152344 15.289062 C 145.402344 15.203125 145.65625 15.125 145.90625 15.046875 C 146.921875 14.753906 147.945312 14.546875 148.972656 14.445312 C 149.488281 14.394531 150.003906 14.367188 150.523438 14.367188 C 150.78125 14.359375 151.042969 14.375 151.300781 14.382812 C 151.558594 14.40625 151.820312 14.414062 152.078125 14.445312 C 152.339844 14.476562 152.589844 14.515625 152.847656 14.554688 C 153.109375 14.613281 153.359375 14.660156 153.621094 14.722656 C 153.855469 14.78125 154.089844 14.847656 154.320312 14.917969 C 150.324219 15.882812 143.996094 18.566406 134.929688 25.578125 C 134.53125 25.871094 134.132812 26.167969 133.734375 26.46875 C 133.320312 26.777344 132.910156 27.078125 132.5 27.378906 C 131.667969 27.976562 130.828125 28.570312 129.960938 29.136719 C 128.234375 30.28125 126.433594 31.355469 124.515625 32.296875 C 123.640625 32.722656 122.730469 33.117188 121.800781 33.464844 C 121.710938 33.496094 121.625 33.527344 121.535156 33.558594 C 120.503906 33.929688 119.425781 34.238281 118.308594 34.441406 C 117.195312 34.65625 116.023438 34.757812 114.820312 34.710938 C 113.625 34.664062 112.398438 34.441406 111.226562 34.03125 C 110.644531 33.828125 110.078125 33.574219 109.535156 33.273438 C 108.984375 32.984375 108.476562 32.644531 107.996094 32.28125 C 107.507812 31.917969 107.058594 31.523438 106.652344 31.105469 L 106.453125 30.90625 C 106.421875 30.867188 106.476562 30.9375 106.367188 30.8125 L 106.304688 30.75 L 106.226562 30.652344 C 110.570312 33.203125 115.765625 32.457031 121.808594 28.417969 Z M 121.808594 28.417969 " clip-rule="nonzero"/></clipPath><clipPath id="id15"><path d="M 103 10 L 134 10 L 134 33 L 103 33 Z M 103 10 " clip-rule="nonzero"/></clipPath><clipPath id="id16"><path d="M 103.097656 22.269531 C 103.097656 22.128906 103.105469 21.984375 103.113281 21.84375 C 103.121094 21.691406 103.128906 21.550781 103.144531 21.410156 C 103.15625 21.265625 103.167969 21.125 103.183594 20.984375 C 103.203125 20.835938 103.226562 20.691406 103.246094 20.546875 L 103.285156 20.34375 L 103.324219 20.128906 C 103.355469 19.988281 103.386719 19.847656 103.410156 19.703125 C 103.6875 18.589844 104.117188 17.507812 104.714844 16.546875 C 105.007812 16.054688 105.351562 15.597656 105.714844 15.171875 C 105.808594 15.066406 105.902344 14.964844 105.992188 14.863281 C 106.039062 14.8125 106.085938 14.757812 106.140625 14.707031 L 106.289062 14.5625 C 106.386719 14.46875 106.488281 14.375 106.585938 14.28125 C 106.691406 14.183594 106.792969 14.097656 106.902344 14.011719 C 107.320312 13.65625 107.765625 13.347656 108.214844 13.0625 C 108.222656 13.0625 108.324219 13 108.292969 13.015625 L 108.332031 13 L 108.394531 12.960938 L 108.53125 12.882812 C 108.625 12.835938 108.695312 12.796875 108.828125 12.726562 C 109.0625 12.597656 109.308594 12.472656 109.519531 12.378906 C 111.28125 11.582031 113.035156 11.167969 114.710938 11.003906 C 115.550781 10.917969 116.375 10.886719 117.179688 10.917969 L 117.25 10.917969 L 117.328125 10.925781 L 117.390625 10.925781 C 117.390625 10.925781 117.515625 10.925781 117.476562 10.925781 L 117.507812 10.933594 C 117.597656 10.9375 117.6875 10.941406 117.777344 10.949219 C 117.953125 10.964844 118.128906 10.976562 118.300781 10.988281 C 118.390625 11 118.480469 11.007812 118.570312 11.011719 C 118.664062 11.023438 118.761719 11.03125 118.859375 11.042969 C 119.050781 11.0625 119.238281 11.085938 119.425781 11.105469 C 119.8125 11.144531 120.15625 11.21875 120.511719 11.273438 C 120.683594 11.304688 120.867188 11.328125 121.039062 11.367188 C 121.207031 11.402344 121.375 11.441406 121.550781 11.476562 C 121.71875 11.515625 121.882812 11.546875 122.046875 11.582031 C 122.210938 11.621094 122.378906 11.664062 122.539062 11.707031 C 122.863281 11.800781 123.183594 11.871094 123.492188 11.976562 C 123.796875 12.078125 124.105469 12.164062 124.394531 12.265625 C 124.6875 12.371094 124.976562 12.476562 125.261719 12.582031 C 125.542969 12.683594 125.8125 12.804688 126.078125 12.914062 C 126.214844 12.972656 126.347656 13.027344 126.480469 13.082031 C 126.605469 13.144531 126.730469 13.203125 126.855469 13.261719 C 127.109375 13.378906 127.351562 13.492188 127.589844 13.617188 C 127.824219 13.738281 128.050781 13.859375 128.273438 13.980469 C 128.5 14.089844 128.710938 14.21875 128.917969 14.34375 C 129.125 14.46875 129.328125 14.589844 129.523438 14.707031 C 129.898438 14.960938 130.269531 15.1875 130.589844 15.425781 C 130.921875 15.660156 131.226562 15.882812 131.503906 16.097656 C 131.777344 16.320312 132.027344 16.527344 132.257812 16.710938 C 132.476562 16.910156 132.683594 17.089844 132.855469 17.257812 C 132.945312 17.335938 133.027344 17.410156 133.105469 17.484375 C 133.1875 17.558594 133.257812 17.628906 133.320312 17.691406 C 133.449219 17.820312 133.558594 17.933594 133.640625 18.023438 C 133.757812 18.136719 133.847656 18.226562 133.910156 18.289062 L 133.578125 18.710938 C 133.503906 18.667969 133.398438 18.609375 133.257812 18.535156 C 133.148438 18.476562 133.015625 18.402344 132.863281 18.3125 C 132.785156 18.273438 132.699219 18.226562 132.613281 18.179688 C 132.519531 18.132812 132.421875 18.082031 132.320312 18.03125 C 132.113281 17.925781 131.878906 17.804688 131.628906 17.675781 C 131.371094 17.558594 131.09375 17.429688 130.789062 17.289062 C 130.488281 17.144531 130.152344 17.011719 129.804688 16.871094 C 129.453125 16.726562 129.074219 16.585938 128.679688 16.433594 C 127.878906 16.167969 127 15.867188 126.007812 15.636719 C 125.03125 15.394531 123.972656 15.171875 122.832031 15.039062 C 122.546875 14.992188 122.257812 14.976562 121.957031 14.941406 C 121.8125 14.933594 121.664062 14.917969 121.519531 14.902344 C 121.371094 14.894531 121.222656 14.886719 121.070312 14.878906 C 120.917969 14.871094 120.765625 14.859375 120.613281 14.847656 C 120.457031 14.839844 120.308594 14.847656 120.148438 14.839844 C 119.84375 14.839844 119.519531 14.824219 119.222656 14.839844 C 119.070312 14.839844 118.917969 14.84375 118.765625 14.847656 C 118.6875 14.847656 118.609375 14.851562 118.53125 14.855469 C 118.445312 14.863281 118.359375 14.863281 118.269531 14.863281 C 118.097656 14.875 117.921875 14.886719 117.746094 14.894531 C 117.65625 14.902344 117.566406 14.90625 117.476562 14.910156 L 117.445312 14.917969 C 117.382812 14.917969 117.484375 14.917969 117.460938 14.917969 L 117.398438 14.925781 L 117.359375 14.925781 C 117.351562 14.925781 117.351562 14.925781 117.335938 14.925781 L 117.28125 14.933594 C 116.644531 15.007812 116.007812 15.101562 115.363281 15.242188 C 114.726562 15.394531 114.089844 15.582031 113.46875 15.804688 C 112.847656 16.039062 112.242188 16.324219 111.675781 16.65625 C 111.523438 16.734375 111.421875 16.8125 111.296875 16.886719 C 111.25 16.910156 111.148438 16.980469 111.070312 17.035156 L 110.945312 17.121094 L 110.871094 17.167969 L 110.839844 17.183594 C 110.792969 17.21875 110.878906 17.167969 110.863281 17.175781 C 110.628906 17.359375 110.410156 17.539062 110.203125 17.746094 L 110.054688 17.902344 L 109.914062 18.070312 L 109.84375 18.148438 C 109.820312 18.175781 109.800781 18.203125 109.78125 18.234375 C 109.738281 18.292969 109.695312 18.347656 109.644531 18.402344 C 109.480469 18.636719 109.324219 18.882812 109.199219 19.144531 C 108.921875 19.664062 108.742188 20.242188 108.632812 20.847656 C 108.523438 21.457031 108.5 22.105469 108.5625 22.75 C 108.59375 23.074219 108.648438 23.398438 108.71875 23.722656 C 108.789062 24.046875 108.890625 24.363281 109 24.675781 C 109.121094 24.988281 109.257812 25.292969 109.410156 25.59375 C 109.449219 25.664062 109.496094 25.734375 109.535156 25.804688 C 109.574219 25.878906 109.613281 25.957031 109.660156 26.019531 L 109.796875 26.234375 L 109.9375 26.4375 C 109.960938 26.46875 109.992188 26.507812 110.007812 26.53125 L 110.070312 26.613281 L 110.125 26.691406 C 110.148438 26.714844 110.15625 26.730469 110.203125 26.785156 L 110.433594 27.046875 L 110.472656 27.085938 L 110.488281 27.109375 L 110.582031 27.203125 C 110.832031 27.464844 111.085938 27.710938 111.359375 27.921875 C 111.894531 28.363281 112.476562 28.71875 113.113281 28.980469 C 113.742188 29.242188 114.433594 29.421875 115.179688 29.507812 C 115.929688 29.589844 116.722656 29.582031 117.546875 29.492188 C 118.375 29.398438 119.222656 29.226562 120.070312 28.988281 C 120.652344 28.820312 121.226562 28.632812 121.808594 28.417969 C 115.765625 32.457031 110.570312 33.203125 106.226562 30.652344 L 106.070312 30.480469 C 106.039062 30.449219 105.972656 30.371094 105.917969 30.304688 L 105.761719 30.109375 L 105.597656 29.910156 C 105.550781 29.847656 105.511719 29.785156 105.464844 29.722656 C 104.023438 27.765625 103.238281 25.441406 103.113281 23.136719 C 103.097656 22.855469 103.097656 22.5625 103.097656 22.269531 Z M 103.097656 22.269531 " clip-rule="nonzero"/></clipPath></defs><g fill="rgb(7.449341%, 12.159729%, 15.689087%)" fill-opacity="1"><g transform="translate(-1.412206, 35.047895)"><g><path d="M 19.5625 -18.59375 L 8.234375 -18.59375 L 8.234375 -13.21875 L 18.65625 -13.21875 L 18.65625 -8.5625 L 8.234375 -8.5625 L 8.234375 0 L 2.328125 0 L 2.328125 -23.25 L 19.5625 -23.25 Z M 19.5625 -18.59375 "/></g></g></g><g fill="rgb(7.449341%, 12.159729%, 15.689087%)" fill-opacity="1"><g transform="translate(18.639965, 35.047895)"><g><path d="M 16.34375 0 L 12.890625 -6.546875 L 8.234375 -6.546875 L 8.234375 0 L 2.328125 0 L 2.328125 -23.25 L 12.71875 -23.25 C 15.789062 -23.25 18.164062 -22.546875 19.84375 -21.140625 C 21.53125 -19.734375 22.375 -17.734375 22.375 -15.140625 C 22.375 -11.554688 20.96875 -9.066406 18.15625 -7.671875 L 23.046875 0 Z M 8.234375 -11.1875 L 12.71875 -11.1875 C 14 -11.1875 14.992188 -11.503906 15.703125 -12.140625 C 16.410156 -12.785156 16.765625 -13.71875 16.765625 -14.9375 C 16.765625 -16.132812 16.410156 -17.039062 15.703125 -17.65625 C 14.992188 -18.28125 14 -18.59375 12.71875 -18.59375 L 8.234375 -18.59375 Z M 8.234375 -11.1875 "/></g></g></g><g fill="rgb(7.449341%, 12.159729%, 15.689087%)" fill-opacity="1"><g transform="translate(42.676035, 35.047895)"><g><path d="M 8.234375 0 L 2.328125 0 L 2.328125 -23.25 L 8.234375 -23.25 Z M 8.234375 0 "/></g></g></g><g fill="rgb(7.449341%, 12.159729%, 15.689087%)" fill-opacity="1"><g transform="translate(53.233304, 35.047895)"><g><path d="M 11.25 -23.515625 C 14.726562 -23.515625 17.785156 -22.648438 20.421875 -20.921875 L 18.203125 -16.296875 C 16.984375 -17.003906 15.675781 -17.585938 14.28125 -18.046875 C 12.882812 -18.503906 11.710938 -18.734375 10.765625 -18.734375 C 9.054688 -18.734375 8.203125 -18.164062 8.203125 -17.03125 C 8.203125 -16.300781 8.617188 -15.710938 9.453125 -15.265625 C 10.296875 -14.828125 11.320312 -14.445312 12.53125 -14.125 C 13.738281 -13.800781 14.945312 -13.410156 16.15625 -12.953125 C 17.363281 -12.503906 18.382812 -11.769531 19.21875 -10.75 C 20.0625 -9.738281 20.484375 -8.457031 20.484375 -6.90625 C 20.484375 -4.664062 19.609375 -2.921875 17.859375 -1.671875 C 16.109375 -0.421875 13.882812 0.203125 11.1875 0.203125 C 9.257812 0.203125 7.351562 -0.128906 5.46875 -0.796875 C 3.59375 -1.460938 1.957031 -2.367188 0.5625 -3.515625 L 2.859375 -8.0625 C 4.023438 -7.050781 5.40625 -6.21875 7 -5.5625 C 8.59375 -4.90625 10.007812 -4.578125 11.25 -4.578125 C 12.207031 -4.578125 12.953125 -4.75 13.484375 -5.09375 C 14.015625 -5.4375 14.28125 -5.941406 14.28125 -6.609375 C 14.28125 -7.253906 13.972656 -7.789062 13.359375 -8.21875 C 12.753906 -8.644531 12 -8.960938 11.09375 -9.171875 C 10.1875 -9.390625 9.203125 -9.675781 8.140625 -10.03125 C 7.078125 -10.382812 6.085938 -10.769531 5.171875 -11.1875 C 4.265625 -11.613281 3.507812 -12.285156 2.90625 -13.203125 C 2.300781 -14.117188 2 -15.21875 2 -16.5 C 2 -18.625 2.84375 -20.320312 4.53125 -21.59375 C 6.226562 -22.875 8.46875 -23.515625 11.25 -23.515625 Z M 11.25 -23.515625 "/></g></g></g><g fill="rgb(7.449341%, 12.159729%, 15.689087%)" fill-opacity="1"><g transform="translate(74.613456, 35.047895)"><g><path d="M 25 -0.734375 L 27.09375 2.921875 C 26.207031 3.722656 25.15625 4.347656 23.9375 4.796875 C 22.71875 5.253906 21.523438 5.484375 20.359375 5.484375 C 18.765625 5.484375 17.3125 5.019531 16 4.09375 C 14.695312 3.175781 13.660156 1.898438 12.890625 0.265625 C 9.410156 0.148438 6.523438 -1.03125 4.234375 -3.28125 C 1.941406 -5.539062 0.796875 -8.332031 0.796875 -11.65625 C 0.796875 -15.039062 1.988281 -17.847656 4.375 -20.078125 C 6.769531 -22.316406 9.757812 -23.4375 13.34375 -23.4375 C 16.957031 -23.4375 19.957031 -22.3125 22.34375 -20.0625 C 24.738281 -17.820312 25.9375 -15.019531 25.9375 -11.65625 C 25.9375 -9.113281 25.234375 -6.84375 23.828125 -4.84375 C 22.421875 -2.851562 20.546875 -1.425781 18.203125 -0.5625 C 19.035156 0.5 19.972656 1.03125 21.015625 1.03125 C 22.148438 1.03125 23.476562 0.441406 25 -0.734375 Z M 8.765625 -16.515625 C 7.484375 -15.203125 6.84375 -13.570312 6.84375 -11.625 C 6.84375 -9.675781 7.488281 -8.03125 8.78125 -6.6875 C 10.070312 -5.351562 11.613281 -4.6875 13.40625 -4.6875 C 15.207031 -4.6875 16.734375 -5.351562 17.984375 -6.6875 C 19.234375 -8.03125 19.859375 -9.675781 19.859375 -11.625 C 19.859375 -13.570312 19.234375 -15.203125 17.984375 -16.515625 C 16.734375 -17.835938 15.210938 -18.5 13.421875 -18.5 C 11.597656 -18.5 10.046875 -17.835938 8.765625 -16.515625 Z M 8.765625 -16.515625 "/></g></g></g><g fill="rgb(7.449341%, 12.159729%, 15.689087%)" fill-opacity="1"><g transform="translate(101.46932, 35.047895)"><g/></g></g><g fill="rgb(7.449341%, 12.159729%, 15.689087%)" fill-opacity="1"><g transform="translate(109.171503, 35.047895)"><g/></g></g><g fill="rgb(7.449341%, 12.159729%, 15.689087%)" fill-opacity="1"><g transform="translate(116.873687, 35.047895)"><g/></g></g><g fill="rgb(7.449341%, 12.159729%, 15.689087%)" fill-opacity="1"><g transform="translate(124.575871, 35.047895)"><g/></g></g><g fill="rgb(7.449341%, 12.159729%, 15.689087%)" fill-opacity="1"><g transform="translate(132.278055, 35.047895)"><g/></g></g><g fill="rgb(7.449341%, 12.159729%, 15.689087%)" fill-opacity="1"><g transform="translate(139.980238, 35.047895)"><g/></g></g><g fill="rgb(7.449341%, 12.159729%, 15.689087%)" fill-opacity="1"><g transform="translate(147.682422, 35.047895)"><g/></g></g><g fill="rgb(7.449341%, 12.159729%, 15.689087%)" fill-opacity="1"><g transform="translate(155.384606, 35.047895)"><g/></g></g><g fill="rgb(7.449341%, 12.159729%, 15.689087%)" fill-opacity="1"><g transform="translate(163.086789, 35.047895)"><g/></g></g><g fill="rgb(7.449341%, 12.159729%, 15.689087%)" fill-opacity="1"><g transform="translate(170.763053, 35.047895)"><g><path d="M 8.703125 -13.578125 L 9.890625 -13.453125 C 11.890625 -13.273438 13.476562 -12.632812 14.65625 -11.53125 C 15.84375 -10.4375 16.4375 -8.992188 16.4375 -7.203125 C 16.4375 -5.015625 15.664062 -3.238281 14.125 -1.875 C 12.59375 -0.507812 10.539062 0.171875 7.96875 0.171875 C 6.550781 0.171875 5.140625 -0.0546875 3.734375 -0.515625 C 2.328125 -0.972656 1.128906 -1.585938 0.140625 -2.359375 L 1.765625 -5.546875 C 3.484375 -3.929688 5.460938 -3.125 7.703125 -3.125 C 9.234375 -3.125 10.425781 -3.484375 11.28125 -4.203125 C 12.144531 -4.921875 12.578125 -5.890625 12.578125 -7.109375 C 12.578125 -8.347656 12.148438 -9.289062 11.296875 -9.9375 C 10.453125 -10.59375 9.242188 -10.921875 7.671875 -10.921875 L 4.453125 -10.921875 L 4.453125 -13.21875 L 10.5 -19.71875 L 1.203125 -19.71875 L 1.203125 -23.203125 L 15.34375 -23.203125 L 15.34375 -20.75 Z M 8.703125 -13.578125 "/></g></g></g><g fill="rgb(7.449341%, 12.159729%, 15.689087%)" fill-opacity="1"><g transform="translate(188.65731, 35.047895)"><g><path d="M 3.0625 -23.25 L 12.578125 -23.25 C 16.054688 -23.25 18.929688 -22.148438 21.203125 -19.953125 C 23.472656 -17.765625 24.609375 -14.988281 24.609375 -11.625 C 24.609375 -8.257812 23.46875 -5.476562 21.1875 -3.28125 C 18.90625 -1.09375 16.003906 0 12.484375 0 L 3.0625 0 Z M 6.96875 -19.71875 L 6.96875 -3.515625 L 12.6875 -3.515625 C 14.96875 -3.515625 16.863281 -4.269531 18.375 -5.78125 C 19.894531 -7.300781 20.65625 -9.234375 20.65625 -11.578125 C 20.65625 -13.929688 19.875 -15.875 18.3125 -17.40625 C 16.75 -18.945312 14.816406 -19.71875 12.515625 -19.71875 Z M 6.96875 -19.71875 "/></g></g></g><g clip-path="url(#id3)"><g clip-path="url(#id4)"><path fill="rgb(0.39978%, 28.999329%, 67.799377%)" d="M 155.71875 27.417969 L 155.71875 27.394531 L 155.6875 27.394531 L 155.6875 27.417969 Z M 155.71875 27.417969 " fill-opacity="1" fill-rule="nonzero"/></g></g><g clip-path="url(#id5)"><g clip-path="url(#id6)"><path fill="rgb(0.39978%, 28.999329%, 67.799377%)" d="M 157.1875 20.507812 L 157.1875 20.46875 L 157.171875 20.46875 L 157.171875 20.507812 Z M 157.1875 20.507812 " fill-opacity="1" fill-rule="nonzero"/></g></g><g clip-path="url(#id7)"><g clip-path="url(#id8)"><path fill="rgb(0.39978%, 28.999329%, 67.799377%)" d="M 155.71875 27.417969 L 155.71875 27.394531 L 155.6875 27.394531 L 155.6875 27.417969 Z M 155.71875 27.417969 " fill-opacity="1" fill-rule="nonzero"/></g></g><g clip-path="url(#id9)"><g clip-path="url(#id10)"><path fill="rgb(0.39978%, 28.999329%, 67.799377%)" d="M 157.1875 20.507812 L 157.1875 20.46875 L 157.171875 20.46875 L 157.171875 20.507812 Z M 157.1875 20.507812 " fill-opacity="1" fill-rule="nonzero"/></g></g><g clip-path="url(#id11)"><g clip-path="url(#id12)"><path fill="rgb(0.39978%, 28.999329%, 67.799377%)" d="M 160.121094 31.425781 L 160.121094 14.917969 L 134.929688 14.917969 L 134.929688 31.425781 Z M 160.121094 31.425781 " fill-opacity="1" fill-rule="nonzero"/></g></g><g clip-path="url(#id13)"><g clip-path="url(#id14)"><path fill="rgb(0.39978%, 28.999329%, 67.799377%)" d="M 154.320312 34.757812 L 154.320312 14.359375 L 106.226562 14.359375 L 106.226562 34.757812 Z M 154.320312 34.757812 " fill-opacity="1" fill-rule="nonzero"/></g></g><g clip-path="url(#id15)"><g clip-path="url(#id16)"><path fill="rgb(0.39978%, 28.999329%, 67.799377%)" d="M 133.910156 33.203125 L 133.910156 10.886719 L 103.097656 10.886719 L 103.097656 33.203125 Z M 133.910156 33.203125 " fill-opacity="1" fill-rule="nonzero"/></g></g></svg>