<svg xmlns="http://www.w3.org/2000/svg" xmlns:xlink="http://www.w3.org/1999/xlink" width="60" zoomAndPan="magnify" viewBox="0 0 45 44.999999" height="60" preserveAspectRatio="xMidYMid meet" version="1.0"><defs><clipPath id="id1"><path d="M 0.417969 5 L 44.667969 5 L 44.667969 44.359375 L 0.417969 44.359375 Z M 0.417969 5 " clip-rule="nonzero"/></clipPath><clipPath id="id2"><path d="M 0.417969 5 L 44.667969 5 L 44.667969 19 L 0.417969 19 Z M 0.417969 5 " clip-rule="nonzero"/></clipPath><clipPath id="id3"><path d="M 0.417969 0.859375 L 44.667969 0.859375 L 44.667969 19 L 0.417969 19 Z M 0.417969 0.859375 " clip-rule="nonzero"/></clipPath><clipPath id="id4"><path d="M 0.421875 5.929688 L 9.179688 0.859375 L 22.542969 8.597656 L 35.90625 0.859375 L 44.664062 5.929688 L 22.542969 18.738281 Z M 0.421875 5.929688 " clip-rule="evenodd"/></clipPath></defs><g clip-path="url(#id1)"><path fill="rgb(0.389099%, 29.019165%, 67.83905%)" d="M 22.542969 44.359375 L 0.421875 31.550781 L 0.421875 5.929688 L 9.179688 11 L 9.179688 26.476562 L 22.542969 34.214844 L 35.90625 26.476562 L 35.90625 11 L 44.664062 5.929688 L 44.664062 31.550781 Z M 22.542969 44.359375 " fill-opacity="1" fill-rule="evenodd"/></g><g clip-path="url(#id2)"><path fill="rgb(16.079712%, 30.589294%, 40.388489%)" d="M 44.664062 5.929688 L 35.90625 11 L 35.90625 18.738281 Z M 0.421875 5.929688 L 9.179688 11 L 9.179688 18.738281 Z M 0.421875 5.929688 " fill-opacity="1" fill-rule="evenodd"/></g><g clip-path="url(#id3)"><g clip-path="url(#id4)"><path fill="rgb(1.599121%, 29.798889%, 68.199158%)" d="M 0.421875 0.859375 L 0.421875 18.738281 L 44.664062 18.738281 L 44.664062 0.859375 Z M 0.421875 0.859375 " fill-opacity="1" fill-rule="nonzero"/></g></g></svg>